<svg width="160" height="126" viewBox="0 0 160 126" fill="none" xmlns="http://www.w3.org/2000/svg">
<g clip-path="url(#clip0)">
<path d="M145.607 114.276C145.607 114.276 126.537 97.323 121.158 88.8844C115.779 80.4457 112.271 77.2786 107.743 78.732C107.743 78.732 100.65 83.2726 100.341 86.3305C100.032 89.3884 102.808 90.4343 105.212 89.3926C107.616 88.3509 110.951 84.0665 110.951 84.0665" stroke="white" stroke-miterlimit="10" stroke-linecap="round" stroke-linejoin="round"/>
<path d="M110.95 98.0246C110.95 98.0246 102.034 100.717 101.496 89.2373" stroke="white" stroke-miterlimit="10" stroke-linecap="round" stroke-linejoin="round"/>
<path d="M111.606 78.6895C111.606 78.6895 101.081 66.8653 100.032 65.8824C98.982 64.8995 96.4555 64.8449 95.7741 67.844C95.0928 70.8431 102.435 80.6469 102.435 80.6469" stroke="white" stroke-miterlimit="10" stroke-linecap="round" stroke-linejoin="round"/>
<path d="M100.899 88.6708C100.899 88.6708 96.9462 86.4571 95.3423 82.66C93.7384 78.8628 95.9814 75.4688 99.4855 76.3593" stroke="white" stroke-miterlimit="10" stroke-linecap="round" stroke-linejoin="round"/>
<path d="M101.742 91.5277C101.742 91.5277 100.472 93.4935 98.4917 93.7707C96.5111 94.048 93.7391 92.2712 91.7204 89.2385C89.7017 86.2058 88.885 83.2109 90.3027 81.5601C91.7204 79.9093 94.1115 79.9682 94.831 80.6402" stroke="white" stroke-miterlimit="10" stroke-linecap="round" stroke-linejoin="round"/>
<path d="M97.0613 93.6688C97.0613 93.6688 96.947 98.1632 93.9254 98.5917C90.9037 99.0201 85.0382 90.8923 84.8604 88.1914C84.6827 85.4906 87.7424 83.718 89.5706 84.5749" stroke="white" stroke-miterlimit="10" stroke-linecap="round" stroke-linejoin="round"/>
<path d="M90.5312 96.9082C90.5312 96.9082 112.292 120.687 119.495 125.828" stroke="white" stroke-miterlimit="10" stroke-linecap="round" stroke-linejoin="round"/>
<path d="M110.951 71.0171C110.951 71.0171 111.873 33.4821 109.96 22.561C109.96 22.561 63.8779 17.0207 42.5146 22.561L46.023 92.8298L84.1112 93.8043" stroke="white" stroke-miterlimit="10" stroke-linecap="round" stroke-linejoin="round"/>
<path d="M47.2881 27.8516L49.3491 61.6103L105.698 60.136C105.698 60.136 106.388 31.1531 105.013 27.2845C105.013 27.3013 65.1726 24.5542 47.2881 27.8516Z" fill="#777D92"/>
<path d="M71.5419 34.4093C70.8762 34.0646 70.082 34.5477 70.082 35.2973V51.4499C70.082 52.2242 70.924 52.7047 71.5906 52.3109L86.1618 43.7036C86.8384 43.3039 86.8109 42.3159 86.1131 41.9546L71.5419 34.4093Z" fill="white"/>
<path d="M152.573 77.6106C152.573 77.6106 159.001 58.8096 159.767 53.0004C159.767 53.0004 137.392 42.9992 125.733 42.4531L116.347 78.4591L148.73 88.1201" stroke="white" stroke-miterlimit="10" stroke-linecap="round" stroke-linejoin="round"/>
<path d="M127.303 45.873L122.982 63.2292L151.65 71.2982C151.65 71.2982 156.584 56.7773 156.521 54.6057C156.521 54.6057 136.842 47.003 127.303 45.873Z" fill="#777D92"/>
<path d="M139.048 53.5147C138.516 52.9884 137.615 53.2115 137.391 53.9253L135.305 60.5501C135.072 61.2903 135.734 62.0023 136.489 61.8235L143.576 60.1454C144.34 59.9645 144.607 59.0137 144.049 58.4614L139.048 53.5147Z" fill="white"/>
<path d="M50.0391 70.7138C50.0391 70.7138 76.1506 67.1897 83.1377 67.9878" stroke="white" stroke-miterlimit="10" stroke-linecap="round" stroke-linejoin="round"/>
<path d="M51.0679 77.2876C51.7577 77.4013 63.6666 76.4877 72.6004 77.2876" stroke="white" stroke-miterlimit="10" stroke-linecap="round" stroke-linejoin="round"/>
<path d="M59.7432 15.6552V2.77246" stroke="white" stroke-miterlimit="10" stroke-linecap="round" stroke-linejoin="round"/>
<path d="M45.3332 14.5892L38.6665 2.65234" stroke="white" stroke-miterlimit="10" stroke-linecap="round" stroke-linejoin="round"/>
<path d="M34.6257 20.0987L28.4639 14.1719" stroke="white" stroke-miterlimit="10" stroke-linecap="round" stroke-linejoin="round"/>
<path d="M34.6265 33.6533H22.396" stroke="white" stroke-miterlimit="10" stroke-linecap="round" stroke-linejoin="round"/>
<path d="M35.9339 41.8828L23.0474 47.2594" stroke="white" stroke-miterlimit="10" stroke-linecap="round" stroke-linejoin="round"/>
<path d="M36.687 62.2285L0.245117 69.2894L10.3935 123.273L55.4095 113.343L52.409 96.9072" stroke="white" stroke-miterlimit="10" stroke-linecap="round" stroke-linejoin="round"/>
<path d="M4.39307 72.9616L9.79312 97.5256L43.6831 86.9994L39.9844 65.2832L4.39307 72.9616Z" fill="#777D92"/>
<path d="M21.5568 76.6159C20.8272 76.4382 20.1694 77.0981 20.3493 77.8271L22.0915 84.8869C22.2768 85.6377 23.2076 85.9031 23.7609 85.3629L29.2009 80.0523C29.7629 79.5037 29.5021 78.551 28.739 78.3651L21.5568 76.6159Z" fill="white"/>
<path d="M12.3906 104.372L32.2854 99.1133" stroke="white" stroke-miterlimit="10" stroke-linecap="round" stroke-linejoin="round"/>
<path d="M13.6904 111.364C13.6904 111.364 39.1841 103.678 42.9802 103.178" stroke="white" stroke-miterlimit="10" stroke-linecap="round" stroke-linejoin="round"/>
</g>
<defs>
<clipPath id="clip0">
<rect width="160" height="126" fill="white"/>
</clipPath>
</defs>
</svg>
